<svg xmlns="http://www.w3.org/2000/svg" xmlns:xlink="http://www.w3.org/1999/xlink" width="1283" zoomAndPan="magnify" viewBox="0 0 962.25 504.74999" height="673" preserveAspectRatio="xMidYMid meet" version="1.2"><defs><clipPath id="0f7bf5e279"><path d="M 103 331.566406 L 227 331.566406 L 227 458 L 103 458 Z M 103 331.566406 "/></clipPath><clipPath id="fbd825d496"><path d="M 734.105469 326 L 858.507812 326 L 858.507812 453 L 734.105469 453 Z M 734.105469 326 "/></clipPath></defs><g id="69dcd7b8f4"><g style="fill:#000000;fill-opacity:1;"><g transform="translate(203.260906, 391.735173)"><path style="stroke:none" d="M -29.0625 -136.765625 C -22.320312 -136.023438 -16.3125 -134.378906 -11.03125 -131.828125 C -5.757812 -129.273438 -1.289062 -126.070312 2.375 -122.21875 C 6.050781 -118.363281 8.847656 -114.046875 10.765625 -109.265625 C 12.679688 -104.492188 13.664062 -99.472656 13.71875 -94.203125 C 13.78125 -88.929688 12.816406 -83.613281 10.828125 -78.25 C 8.835938 -72.882812 5.769531 -67.691406 1.625 -62.671875 C 5.3125 -60.578125 8.738281 -58.421875 11.90625 -56.203125 C 15.082031 -53.984375 17.785156 -51.691406 20.015625 -49.328125 C 22.253906 -46.960938 23.816406 -44.429688 24.703125 -41.734375 C 25.585938 -39.035156 25.617188 -36.132812 24.796875 -33.03125 C 23.972656 -29.9375 22.066406 -26.578125 19.078125 -22.953125 C 16.128906 -19.390625 12.9375 -17.054688 9.5 -15.953125 C 6.070312 -14.847656 2.460938 -14.695312 -1.328125 -15.5 C -5.117188 -16.300781 -9.003906 -17.789062 -12.984375 -19.96875 C -16.960938 -22.144531 -21.007812 -24.765625 -25.125 -27.828125 C -29.238281 -30.898438 -33.300781 -34.132812 -37.3125 -37.53125 L -64.015625 -59.59375 C -67.191406 -62.226562 -70.269531 -65.035156 -73.25 -68.015625 C -76.238281 -71.003906 -78.8125 -74.039062 -80.96875 -77.125 C -83.132812 -80.207031 -84.597656 -83.21875 -85.359375 -86.15625 C -86.128906 -89.09375 -85.90625 -91.832031 -84.6875 -94.375 C -77.507812 -109.519531 -69.253906 -120.671875 -59.921875 -127.828125 C -50.585938 -134.992188 -40.300781 -137.972656 -29.0625 -136.765625 Z M -46.203125 -97.734375 C -44.171875 -95.609375 -42.382812 -93.832031 -40.84375 -92.40625 C -39.3125 -90.988281 -37.800781 -89.703125 -36.3125 -88.546875 C -34.820312 -87.398438 -33.101562 -86.132812 -31.15625 -84.75 C -29.21875 -83.363281 -26.8125 -81.628906 -23.9375 -79.546875 C -24.144531 -84.316406 -24.847656 -88.515625 -26.046875 -92.140625 C -27.242188 -95.765625 -28.832031 -98.523438 -30.8125 -100.421875 C -32.800781 -102.328125 -35.109375 -103.125 -37.734375 -102.8125 C -40.367188 -102.507812 -43.191406 -100.816406 -46.203125 -97.734375 Z M -46.203125 -97.734375 "/></g></g><g style="fill:#000000;fill-opacity:1;"><g transform="translate(250.258368, 329.653359)"><path style="stroke:none" d="M 46.46875 -33.6875 C 39.800781 -28.84375 32.972656 -25.753906 25.984375 -24.421875 C 19.003906 -23.085938 12.09375 -23.285156 5.25 -25.015625 C -1.59375 -26.753906 -8.09375 -29.859375 -14.25 -34.328125 C -20.40625 -38.796875 -25.953125 -44.429688 -30.890625 -51.234375 C -34.898438 -56.742188 -38.34375 -62.550781 -41.21875 -68.65625 C -44.101562 -74.757812 -46.238281 -80.878906 -47.625 -87.015625 C -49.007812 -93.148438 -49.523438 -99.085938 -49.171875 -104.828125 C -48.816406 -110.566406 -47.457031 -115.84375 -45.09375 -120.65625 C -42.738281 -125.476562 -39.203125 -129.609375 -34.484375 -133.046875 C -29.347656 -136.773438 -23.972656 -139.375 -18.359375 -140.84375 C -12.742188 -142.3125 -7.054688 -142.734375 -1.296875 -142.109375 C 4.460938 -141.492188 10.078125 -139.921875 15.546875 -137.390625 C 21.023438 -134.867188 26.234375 -131.5 31.171875 -127.28125 C 36.109375 -123.0625 40.5625 -118.082031 44.53125 -112.34375 C 48.1875 -107.007812 51.378906 -101.460938 54.109375 -95.703125 C 56.847656 -89.953125 58.914062 -84.171875 60.3125 -78.359375 C 61.707031 -72.554688 62.21875 -66.941406 61.84375 -61.515625 C 61.476562 -56.085938 60.070312 -51 57.625 -46.25 C 55.175781 -41.5 51.457031 -37.3125 46.46875 -33.6875 Z M 15.109375 -83.09375 C 9.960938 -90.175781 5.5 -95.097656 1.71875 -97.859375 C -2.0625 -100.617188 -4.785156 -101.644531 -6.453125 -100.9375 C -8.265625 -100.101562 -8.519531 -97.3125 -7.21875 -92.5625 C -5.925781 -87.8125 -2.523438 -81.644531 2.984375 -74.0625 C 6.679688 -68.976562 10.046875 -65.613281 13.078125 -63.96875 C 16.117188 -62.320312 18.414062 -61.992188 19.96875 -62.984375 C 21.601562 -64.023438 22.140625 -66.34375 21.578125 -69.9375 C 21.023438 -73.53125 18.867188 -77.914062 15.109375 -83.09375 Z M 15.109375 -83.09375 "/></g></g><g style="fill:#000000;fill-opacity:1;"><g transform="translate(316.330108, 278.218248)"><path style="stroke:none" d="M 54 -130.609375 C 55.382812 -126.921875 56.03125 -123.707031 55.9375 -120.96875 C 55.851562 -118.226562 55.003906 -115.816406 53.390625 -113.734375 C 51.785156 -111.660156 49.375 -109.710938 46.15625 -107.890625 C 42.9375 -106.078125 38.90625 -104.222656 34.0625 -102.328125 C 35.132812 -100.535156 36.585938 -98.125 38.421875 -95.09375 C 40.265625 -92.070312 42.273438 -88.65625 44.453125 -84.84375 C 46.628906 -81.03125 48.800781 -76.984375 50.96875 -72.703125 C 53.132812 -68.421875 55.09375 -64.085938 56.84375 -59.703125 C 58.59375 -55.328125 59.960938 -51.0625 60.953125 -46.90625 C 61.941406 -42.75 62.363281 -38.890625 62.21875 -35.328125 C 62.082031 -31.773438 61.191406 -28.691406 59.546875 -26.078125 C 57.910156 -23.472656 55.3125 -21.53125 51.75 -20.25 C 46.425781 -18.34375 41.851562 -17.515625 38.03125 -17.765625 C 34.21875 -18.023438 30.910156 -19.257812 28.109375 -21.46875 C 25.304688 -23.675781 22.796875 -26.847656 20.578125 -30.984375 C 18.359375 -35.128906 16.222656 -40.175781 14.171875 -46.125 C 12.117188 -52.070312 9.9375 -58.878906 7.625 -66.546875 C 5.3125 -74.210938 2.617188 -82.660156 -0.453125 -91.890625 C -9.078125 -88.378906 -16.238281 -87.453125 -21.9375 -89.109375 C -27.632812 -90.765625 -31.75 -94.816406 -34.28125 -101.265625 C -35.457031 -104.242188 -35.675781 -107.1875 -34.9375 -110.09375 C -34.195312 -113 -32.742188 -115.796875 -30.578125 -118.484375 C -28.410156 -121.179688 -25.753906 -123.726562 -22.609375 -126.125 C -19.472656 -128.53125 -16.082031 -130.722656 -12.4375 -132.703125 C -8.789062 -134.679688 -5.132812 -136.394531 -1.46875 -137.84375 C 4.757812 -140.28125 10.789062 -142.125 16.625 -143.375 C 22.457031 -144.632812 27.863281 -145.109375 32.84375 -144.796875 C 37.832031 -144.484375 42.15625 -143.1875 45.8125 -140.90625 C 49.476562 -138.625 52.207031 -135.191406 54 -130.609375 Z M 54 -130.609375 "/></g></g><g style="fill:#000000;fill-opacity:1;"><g transform="translate(396.009847, 248.660396)"><path style="stroke:none" d=""/></g></g><g style="fill:#000000;fill-opacity:1;"><g transform="translate(400.704014, 247.402259)"><path style="stroke:none" d=""/></g></g><g style="fill:#000000;fill-opacity:1;"><g transform="translate(405.41683, 246.215916)"><path style="stroke:none" d=""/></g></g><g style="fill:#000000;fill-opacity:1;"><g transform="translate(410.147241, 245.101636)"><path style="stroke:none" d=""/></g></g><g style="fill:#000000;fill-opacity:1;"><g transform="translate(414.894084, 244.059701)"><path style="stroke:none" d=""/></g></g><g style="fill:#000000;fill-opacity:1;"><g transform="translate(419.656307, 243.090339)"><path style="stroke:none" d=""/></g></g><g style="fill:#000000;fill-opacity:1;"><g transform="translate(424.432753, 242.193785)"><path style="stroke:none" d=""/></g></g><g style="fill:#000000;fill-opacity:1;"><g transform="translate(429.222281, 241.370235)"><path style="stroke:none" d=""/></g></g><g style="fill:#000000;fill-opacity:1;"><g transform="translate(434.023919, 240.619894)"><path style="stroke:none" d=""/></g></g><g style="fill:#000000;fill-opacity:1;"><g transform="translate(438.836398, 239.942941)"><path style="stroke:none" d=""/></g></g><g style="fill:#000000;fill-opacity:1;"><g transform="translate(443.658627, 239.339514)"><path style="stroke:none" d=""/></g></g><g style="fill:#000000;fill-opacity:1;"><g transform="translate(448.489548, 238.809757)"><path style="stroke:none" d=""/></g></g><g style="fill:#000000;fill-opacity:1;"><g transform="translate(453.327976, 238.353805)"><path style="stroke:none" d=""/></g></g><g style="fill:#000000;fill-opacity:1;"><g transform="translate(458.172802, 237.971757)"><path style="stroke:none" d=""/></g></g><g style="fill:#000000;fill-opacity:1;"><g transform="translate(463.022867, 237.663724)"><path style="stroke:none" d=""/></g></g><g style="fill:#000000;fill-opacity:1;"><g transform="translate(467.877089, 237.429732)"><path style="stroke:none" d=""/></g></g><g style="fill:#000000;fill-opacity:1;"><g transform="translate(472.734335, 237.269879)"><path style="stroke:none" d=""/></g></g><g style="fill:#000000;fill-opacity:1;"><g transform="translate(477.5934, 237.184185)"><path style="stroke:none" d=""/></g></g><g style="fill:#000000;fill-opacity:1;"><g transform="translate(482.453295, 237.172663)"><path style="stroke:none" d=""/></g></g><g style="fill:#000000;fill-opacity:1;"><g transform="translate(487.312723, 237.235321)"><path style="stroke:none" d=""/></g></g><g style="fill:#000000;fill-opacity:1;"><g transform="translate(492.170714, 237.372157)"><path style="stroke:none" d=""/></g></g><g style="fill:#000000;fill-opacity:1;"><g transform="translate(497.025948, 237.583128)"><path style="stroke:none" d=""/></g></g><g style="fill:#000000;fill-opacity:1;"><g transform="translate(501.877479, 237.868171)"><path style="stroke:none" d=""/></g></g><g style="fill:#000000;fill-opacity:1;"><g transform="translate(506.724055, 238.227255)"><path style="stroke:none" d=""/></g></g><g style="fill:#000000;fill-opacity:1;"><g transform="translate(511.564588, 238.66025)"><path style="stroke:none" d=""/></g></g><g style="fill:#000000;fill-opacity:1;"><g transform="translate(516.397916, 239.167093)"><path style="stroke:none" d=""/></g></g><g style="fill:#000000;fill-opacity:1;"><g transform="translate(521.222952, 239.747652)"><path style="stroke:none" d=""/></g></g><g style="fill:#000000;fill-opacity:1;"><g transform="translate(526.038602, 240.401798)"><path style="stroke:none" d=""/></g></g><g style="fill:#000000;fill-opacity:1;"><g transform="translate(530.843707, 241.12936)"><path style="stroke:none" d=""/></g></g><g style="fill:#000000;fill-opacity:1;"><g transform="translate(535.637168, 241.930208)"><path style="stroke:none" d=""/></g></g><g style="fill:#000000;fill-opacity:1;"><g transform="translate(540.417769, 242.804115)"><path style="stroke:none" d=""/></g></g><g style="fill:#000000;fill-opacity:1;"><g transform="translate(545.184513, 243.750885)"><path style="stroke:none" d=""/></g></g><g style="fill:#000000;fill-opacity:1;"><g transform="translate(549.936248, 244.770303)"><path style="stroke:none" d=""/></g></g><g style="fill:#000000;fill-opacity:1;"><g transform="translate(554.671872, 245.86214)"><path style="stroke:none" d=""/></g></g><g style="fill:#000000;fill-opacity:1;"><g transform="translate(559.390313, 247.026133)"><path style="stroke:none" d=""/></g></g><g style="fill:#000000;fill-opacity:1;"><g transform="translate(564.090429, 248.262021)"><path style="stroke:none" d=""/></g></g><g style="fill:#000000;fill-opacity:1;"><g transform="translate(568.771047, 249.56949)"><path style="stroke:none" d=""/></g></g><g style="fill:#000000;fill-opacity:1;"><g transform="translate(573.431218, 250.94825)"><path style="stroke:none" d=""/></g></g><g style="fill:#000000;fill-opacity:1;"><g transform="translate(578.069878, 252.397997)"><path style="stroke:none" d=""/></g></g><g style="fill:#000000;fill-opacity:1;"><g transform="translate(582.68574, 253.918376)"><path style="stroke:none" d=""/></g></g><g style="fill:#000000;fill-opacity:1;"><g transform="translate(587.277929, 255.509028)"><path style="stroke:none" d=""/></g></g><g style="fill:#000000;fill-opacity:1;"><g transform="translate(591.845312, 257.169597)"><path style="stroke:none" d=""/></g></g><g style="fill:#000000;fill-opacity:1;"><g transform="translate(596.386763, 258.899682)"><path style="stroke:none" d=""/></g></g><g style="fill:#000000;fill-opacity:1;"><g transform="translate(600.901254, 260.6989)"><path style="stroke:none" d=""/></g></g><g style="fill:#000000;fill-opacity:1;"><g transform="translate(605.387835, 262.566813)"><path style="stroke:none" d=""/></g></g><g style="fill:#000000;fill-opacity:1;"><g transform="translate(609.845376, 264.502975)"><path style="stroke:none" d=""/></g></g><g style="fill:#000000;fill-opacity:1;"><g transform="translate(614.272851, 266.506955)"><path style="stroke:none" d=""/></g></g><g style="fill:#000000;fill-opacity:1;"><g transform="translate(618.669149, 268.578305)"><path style="stroke:none" d=""/></g></g><g style="fill:#000000;fill-opacity:1;"><g transform="translate(623.033401, 270.716494)"><path style="stroke:none" d=""/></g></g><g style="fill:#000000;fill-opacity:1;"><g transform="translate(627.364442, 272.921067)"><path style="stroke:none" d=""/></g></g><g style="fill:#000000;fill-opacity:1;"><g transform="translate(631.661359, 275.191493)"><path style="stroke:none" d=""/></g></g><g style="fill:#000000;fill-opacity:1;"><g transform="translate(635.923108, 277.527215)"><path style="stroke:none" d=""/></g></g><g style="fill:#000000;fill-opacity:1;"><g transform="translate(640.148718, 279.927731)"><path style="stroke:none" d=""/></g></g><g style="fill:#000000;fill-opacity:1;"><g transform="translate(644.337187, 282.392476)"><path style="stroke:none" d=""/></g></g><g style="fill:#000000;fill-opacity:1;"><g transform="translate(648.487553, 284.920872)"><path style="stroke:none" d=""/></g></g><g style="fill:#000000;fill-opacity:1;"><g transform="translate(652.598845, 287.512304)"><path style="stroke:none" d=""/></g></g><g style="fill:#000000;fill-opacity:1;"><g transform="translate(656.670144, 290.166196)"><path style="stroke:none" d=""/></g></g><g style="fill:#000000;fill-opacity:1;"><g transform="translate(660.700366, 292.88192)"><path style="stroke:none" d=""/></g></g><g style="fill:#000000;fill-opacity:1;"><g transform="translate(664.688737, 295.658857)"><path style="stroke:none" d=""/></g></g><g style="fill:#000000;fill-opacity:1;"><g transform="translate(668.634269, 298.496347)"><path style="stroke:none" d=""/></g></g><g style="fill:#000000;fill-opacity:1;"><g transform="translate(672.535918, 301.393712)"><path style="stroke:none" d=""/></g></g><g style="fill:#000000;fill-opacity:1;"><g transform="translate(676.393016, 304.350322)"><path style="stroke:none" d=""/></g></g><g style="fill:#000000;fill-opacity:1;"><g transform="translate(680.204513, 307.365436)"><path style="stroke:none" d=""/></g></g><g style="fill:#000000;fill-opacity:1;"><g transform="translate(683.969467, 310.438372)"><path style="stroke:none" d=""/></g></g><g style="fill:#000000;fill-opacity:1;"><g transform="translate(687.687055, 313.56846)"><path style="stroke:none" d=""/></g></g><g style="fill:#000000;fill-opacity:1;"><g transform="translate(691.356618, 316.754904)"><path style="stroke:none" d=""/></g></g><g style="fill:#000000;fill-opacity:1;"><g transform="translate(694.976954, 319.996983)"><path style="stroke:none" d=""/></g></g><g style="fill:#000000;fill-opacity:1;"><g transform="translate(698.547424, 323.293936)"><path style="stroke:none" d=""/></g></g><g style="fill:#000000;fill-opacity:1;"><g transform="translate(702.067087, 326.645043)"><path style="stroke:none" d=""/></g></g><g style="fill:#000000;fill-opacity:1;"><g transform="translate(705.535265, 330.049453)"><path style="stroke:none" d=""/></g></g><g style="fill:#000000;fill-opacity:1;"><g transform="translate(708.95114, 333.506407)"><path style="stroke:none" d=""/></g></g><g style="fill:#000000;fill-opacity:1;"><g transform="translate(712.313714, 337.015093)"><path style="stroke:none" d=""/></g></g><g style="fill:#000000;fill-opacity:1;"><g transform="translate(715.622397, 340.57471)"><path style="stroke:none" d=""/></g></g><g style="fill:#000000;fill-opacity:1;"><g transform="translate(718.876385, 344.184413)"><path style="stroke:none" d=""/></g></g><g style="fill:#000000;fill-opacity:1;"><g transform="translate(722.074918, 347.843358)"><path style="stroke:none" d=""/></g></g><g style="fill:#000000;fill-opacity:1;"><g transform="translate(725.217202, 351.55072)"><path style="stroke:none" d=""/></g></g><g style="fill:#000000;fill-opacity:1;"><g transform="translate(728.30251, 355.305589)"><path style="stroke:none" d=""/></g></g><g style="fill:#000000;fill-opacity:1;"><g transform="translate(731.330069, 359.107116)"><path style="stroke:none" d=""/></g></g><g style="fill:#000000;fill-opacity:1;"><g transform="translate(734.299347, 362.95444)"><path style="stroke:none" d=""/></g></g><g style="fill:#000000;fill-opacity:1;"><g transform="translate(737.209523, 366.846604)"><path style="stroke:none" d=""/></g></g><g style="fill:#000000;fill-opacity:1;"><g transform="translate(740.059965, 370.782749)"><path style="stroke:none" d=""/></g></g><g style="fill:#000000;fill-opacity:1;"><g transform="translate(742.850064, 374.761964)"><path style="stroke:none" d=""/></g></g><g style="fill:#00bf63;fill-opacity:1;"><g transform="translate(206.326962, 386.257189)"><path style="stroke:none" d="M -25.796875 -137.40625 C -19.085938 -136.507812 -13.117188 -134.722656 -7.890625 -132.046875 C -2.671875 -129.378906 1.722656 -126.078125 5.296875 -122.140625 C 8.878906 -118.203125 11.570312 -113.820312 13.375 -109 C 15.175781 -104.175781 16.039062 -99.128906 15.96875 -93.859375 C 15.894531 -88.585938 14.800781 -83.289062 12.6875 -77.96875 C 10.570312 -72.65625 7.378906 -67.539062 3.109375 -62.625 C 6.742188 -60.4375 10.117188 -58.191406 13.234375 -55.890625 C 16.359375 -53.597656 19.007812 -51.242188 21.1875 -48.828125 C 23.363281 -46.410156 24.863281 -43.84375 25.6875 -41.125 C 26.507812 -38.414062 26.472656 -35.519531 25.578125 -32.4375 C 24.679688 -29.351562 22.695312 -26.039062 19.625 -22.5 C 16.59375 -19 13.347656 -16.738281 9.890625 -15.71875 C 6.429688 -14.707031 2.816406 -14.644531 -0.953125 -15.53125 C -4.722656 -16.414062 -8.570312 -17.992188 -12.5 -20.265625 C -16.4375 -22.546875 -20.421875 -25.265625 -24.453125 -28.421875 C -28.492188 -31.585938 -32.476562 -34.910156 -36.40625 -38.390625 L -62.578125 -61.09375 C -65.691406 -63.800781 -68.703125 -66.679688 -71.609375 -69.734375 C -74.523438 -72.796875 -77.023438 -75.894531 -79.109375 -79.03125 C -81.203125 -82.164062 -82.59375 -85.207031 -83.28125 -88.15625 C -83.976562 -91.113281 -83.6875 -93.851562 -82.40625 -96.375 C -74.875 -111.332031 -66.351562 -122.28125 -56.84375 -129.21875 C -47.34375 -136.164062 -36.992188 -138.894531 -25.796875 -137.40625 Z M -43.84375 -98.796875 C -41.875 -96.628906 -40.132812 -94.816406 -38.625 -93.359375 C -37.125 -91.910156 -35.640625 -90.585938 -34.171875 -89.390625 C -32.710938 -88.203125 -31.03125 -86.894531 -29.125 -85.46875 C -27.21875 -84.039062 -24.851562 -82.253906 -22.03125 -80.109375 C -22.125 -84.867188 -22.722656 -89.070312 -23.828125 -92.71875 C -24.941406 -96.375 -26.46875 -99.175781 -28.40625 -101.125 C -30.351562 -103.082031 -32.644531 -103.9375 -35.28125 -103.6875 C -37.914062 -103.445312 -40.769531 -101.816406 -43.84375 -98.796875 Z M -43.84375 -98.796875 "/></g></g><g style="fill:#00bf63;fill-opacity:1;"><g transform="translate(254.791131, 325.313479)"><path style="stroke:none" d="M 47.25 -32.5625 C 40.476562 -27.882812 33.582031 -24.957031 26.5625 -23.78125 C 19.550781 -22.613281 12.644531 -22.976562 5.84375 -24.875 C -0.957031 -26.78125 -7.378906 -30.039062 -13.421875 -34.65625 C -19.460938 -39.269531 -24.875 -45.035156 -29.65625 -51.953125 C -33.53125 -57.554688 -36.832031 -63.441406 -39.5625 -69.609375 C -42.300781 -75.785156 -44.285156 -81.957031 -45.515625 -88.125 C -46.753906 -94.289062 -47.128906 -100.238281 -46.640625 -105.96875 C -46.160156 -111.695312 -44.679688 -116.941406 -42.203125 -121.703125 C -39.734375 -126.472656 -36.101562 -130.515625 -31.3125 -133.828125 C -26.082031 -137.441406 -20.644531 -139.910156 -15 -141.234375 C -9.351562 -142.566406 -3.660156 -142.851562 2.078125 -142.09375 C 7.828125 -141.34375 13.40625 -139.640625 18.8125 -136.984375 C 24.226562 -134.328125 29.351562 -130.832031 34.1875 -126.5 C 39.03125 -122.164062 43.367188 -117.082031 47.203125 -111.25 C 50.722656 -105.832031 53.78125 -100.210938 56.375 -94.390625 C 58.976562 -88.578125 60.90625 -82.75 62.15625 -76.90625 C 63.414062 -71.0625 63.796875 -65.429688 63.296875 -60.015625 C 62.804688 -54.597656 61.273438 -49.546875 58.703125 -44.859375 C 56.140625 -40.171875 52.320312 -36.070312 47.25 -32.5625 Z M 17.078125 -82.71875 C 12.109375 -89.914062 7.765625 -94.9375 4.046875 -97.78125 C 0.328125 -100.632812 -2.367188 -101.726562 -4.046875 -101.0625 C -5.878906 -100.269531 -6.203125 -97.484375 -5.015625 -92.703125 C -3.835938 -87.929688 -0.582031 -81.691406 4.75 -73.984375 C 8.320312 -68.804688 11.601562 -65.359375 14.59375 -63.640625 C 17.59375 -61.921875 19.878906 -61.535156 21.453125 -62.484375 C 23.117188 -63.492188 23.71875 -65.800781 23.25 -69.40625 C 22.78125 -73.007812 20.722656 -77.445312 17.078125 -82.71875 Z M 17.078125 -82.71875 "/></g></g><g style="fill:#00bf63;fill-opacity:1;"><g transform="translate(322.070351, 275.468122)"><path style="stroke:none" d="M 57.109375 -129.28125 C 58.398438 -125.550781 58.96875 -122.320312 58.8125 -119.59375 C 58.65625 -116.863281 57.742188 -114.476562 56.078125 -112.4375 C 54.421875 -110.40625 51.960938 -108.515625 48.703125 -106.765625 C 45.441406 -105.023438 41.375 -103.265625 36.5 -101.484375 C 37.53125 -99.671875 38.925781 -97.226562 40.6875 -94.15625 C 42.445312 -91.082031 44.367188 -87.613281 46.453125 -83.75 C 48.535156 -79.882812 50.609375 -75.785156 52.671875 -71.453125 C 54.742188 -67.128906 56.601562 -62.753906 58.25 -58.328125 C 59.90625 -53.910156 61.175781 -49.613281 62.0625 -45.4375 C 62.957031 -41.269531 63.289062 -37.40625 63.0625 -33.84375 C 62.832031 -30.289062 61.863281 -27.226562 60.15625 -24.65625 C 58.445312 -22.09375 55.800781 -20.210938 52.21875 -19.015625 C 46.851562 -17.222656 42.265625 -16.5 38.453125 -16.84375 C 34.648438 -17.1875 31.367188 -18.5 28.609375 -20.78125 C 25.859375 -23.0625 23.425781 -26.296875 21.3125 -30.484375 C 19.195312 -34.679688 17.179688 -39.773438 15.265625 -45.765625 C 13.347656 -51.753906 11.328125 -58.609375 9.203125 -66.328125 C 7.085938 -74.054688 4.597656 -82.570312 1.734375 -91.875 C -6.972656 -88.570312 -14.148438 -87.816406 -19.796875 -89.609375 C -25.453125 -91.398438 -29.472656 -95.550781 -31.859375 -102.0625 C -32.953125 -105.0625 -33.097656 -108.003906 -32.296875 -110.890625 C -31.492188 -113.773438 -29.976562 -116.535156 -27.75 -119.171875 C -25.519531 -121.816406 -22.804688 -124.300781 -19.609375 -126.625 C -16.410156 -128.957031 -12.960938 -131.066406 -9.265625 -132.953125 C -5.578125 -134.847656 -1.878906 -136.476562 1.828125 -137.84375 C 8.109375 -140.132812 14.179688 -141.835938 20.046875 -142.953125 C 25.910156 -144.066406 31.328125 -144.40625 36.296875 -143.96875 C 41.265625 -143.53125 45.550781 -142.128906 49.15625 -139.765625 C 52.769531 -137.398438 55.421875 -133.90625 57.109375 -129.28125 Z M 57.109375 -129.28125 "/></g></g><g style="fill:#000000;fill-opacity:1;"><g transform="translate(396.748056, 245.777345)"><path style="stroke:none" d="M 82.765625 -55.59375 C 83.484375 -49.289062 83.171875 -43.273438 81.828125 -37.546875 C 80.492188 -31.816406 78.25 -26.65625 75.09375 -22.0625 C 71.9375 -17.46875 67.976562 -13.703125 63.21875 -10.765625 C 58.457031 -7.835938 52.984375 -6.023438 46.796875 -5.328125 C 39.460938 -4.492188 32.992188 -5.28125 27.390625 -7.6875 C 21.796875 -10.101562 17.019531 -13.789062 13.0625 -18.75 C 9.101562 -23.71875 5.914062 -29.585938 3.5 -36.359375 C 1.09375 -43.128906 -0.554688 -50.429688 -1.453125 -58.265625 C -2.191406 -64.742188 -2.394531 -71.351562 -2.0625 -78.09375 C -1.726562 -84.84375 -0.816406 -91.394531 0.671875 -97.75 C 2.160156 -104.113281 4.316406 -109.941406 7.140625 -115.234375 C 9.960938 -120.523438 13.472656 -124.9375 17.671875 -128.46875 C 22.898438 -132.007812 29.007812 -134.175781 36 -134.96875 C 40.207031 -135.445312 44.351562 -135.210938 48.4375 -134.265625 C 52.519531 -133.316406 56.367188 -131.828125 59.984375 -129.796875 C 63.609375 -127.765625 66.8125 -125.28125 69.59375 -122.34375 C 72.375 -119.40625 74.570312 -116.171875 76.1875 -112.640625 C 77.800781 -109.117188 78.625 -105.414062 78.65625 -101.53125 C 78.6875 -97.65625 77.785156 -93.738281 75.953125 -89.78125 C 74.710938 -87.507812 73.0625 -85.65625 71 -84.21875 C 68.945312 -82.78125 66.734375 -81.765625 64.359375 -81.171875 C 61.984375 -80.585938 59.59375 -80.457031 57.1875 -80.78125 C 54.789062 -81.113281 52.597656 -81.925781 50.609375 -83.21875 C 48.628906 -84.519531 47.046875 -86.316406 45.859375 -88.609375 L 45.34375 -93.125 L 42.421875 -96.078125 C 37.503906 -77.953125 35.722656 -62.957031 37.078125 -51.09375 C 37.367188 -48.53125 38.003906 -46.484375 38.984375 -44.953125 C 39.960938 -43.429688 41.078125 -42.5 42.328125 -42.15625 C 43.585938 -41.8125 44.820312 -42.09375 46.03125 -43 C 47.25 -43.914062 48.253906 -45.488281 49.046875 -47.71875 C 49.316406 -48.832031 49.25 -49.640625 48.84375 -50.140625 C 48.445312 -50.640625 47.875 -50.988281 47.125 -51.1875 C 46.382812 -51.394531 45.585938 -51.582031 44.734375 -51.75 C 43.890625 -51.914062 43.140625 -52.203125 42.484375 -52.609375 C 41.835938 -53.023438 41.40625 -53.6875 41.1875 -54.59375 C 40.59375 -57.800781 40.707031 -60.300781 41.53125 -62.09375 C 42.363281 -63.882812 43.890625 -65.28125 46.109375 -66.28125 C 48.328125 -67.28125 51.175781 -68.117188 54.65625 -68.796875 C 59.113281 -69.648438 63 -70.191406 66.3125 -70.421875 C 69.632812 -70.648438 72.429688 -70.347656 74.703125 -69.515625 C 76.984375 -68.691406 78.78125 -67.175781 80.09375 -64.96875 C 81.414062 -62.757812 82.304688 -59.632812 82.765625 -55.59375 Z M 82.765625 -55.59375 "/></g></g><g style="fill:#000000;fill-opacity:1;"><g transform="translate(468.158597, 234.575344)"><path style="stroke:none" d="M 84.6875 -43.0625 C 88.425781 -37.863281 91.410156 -32.722656 93.640625 -27.640625 C 95.878906 -22.566406 97.257812 -17.804688 97.78125 -13.359375 C 98.300781 -8.921875 97.847656 -5.003906 96.421875 -1.609375 C 94.992188 1.785156 92.472656 4.441406 88.859375 6.359375 C 85.253906 8.285156 80.4375 9.195312 74.40625 9.09375 C 65.15625 8.882812 56.957031 -1.535156 49.8125 -22.171875 C 49.6875 -16.484375 48.914062 -11.609375 47.5 -7.546875 C 46.082031 -3.492188 43.753906 -0.5 40.515625 1.4375 C 37.285156 3.382812 32.863281 4.015625 27.25 3.328125 C 21.6875 2.648438 17.40625 1.238281 14.40625 -0.90625 C 11.414062 -3.050781 9.457031 -5.992188 8.53125 -9.734375 C 7.613281 -13.484375 7.488281 -18.054688 8.15625 -23.453125 C 8.175781 -24.203125 8.328125 -25.726562 8.609375 -28.03125 C 8.890625 -30.332031 9.234375 -33.15625 9.640625 -36.5 C 10.054688 -39.84375 10.523438 -43.425781 11.046875 -47.25 C 11.566406 -51.070312 12.113281 -54.851562 12.6875 -58.59375 C 14.332031 -69.21875 15.960938 -78.535156 17.578125 -86.546875 C 19.191406 -94.566406 20.796875 -101.300781 22.390625 -106.75 C 23.429688 -110.132812 25.332031 -112.976562 28.09375 -115.28125 C 30.851562 -117.59375 34.222656 -119.382812 38.203125 -120.65625 C 42.191406 -121.9375 46.507812 -122.722656 51.15625 -123.015625 C 55.8125 -123.316406 60.515625 -123.144531 65.265625 -122.5 C 75.359375 -121.15625 83.691406 -118.179688 90.265625 -113.578125 C 96.847656 -108.972656 101.429688 -102.984375 104.015625 -95.609375 C 106.597656 -88.234375 106.925781 -79.710938 105 -70.046875 C 103.96875 -64.859375 101.800781 -60.078125 98.5 -55.703125 C 95.195312 -51.328125 90.59375 -47.113281 84.6875 -43.0625 Z M 54.328125 -84.6875 C 54.078125 -84.5 53.882812 -84.09375 53.75 -83.46875 C 53.625 -82.851562 53.472656 -81.71875 53.296875 -80.0625 C 53.128906 -78.40625 52.859375 -75.960938 52.484375 -72.734375 C 52.109375 -69.503906 51.59375 -65.191406 50.9375 -59.796875 C 54.257812 -60.472656 57.09375 -61.707031 59.4375 -63.5 C 61.789062 -65.289062 63.648438 -67.328125 65.015625 -69.609375 C 66.390625 -71.890625 67.210938 -74.148438 67.484375 -76.390625 C 67.765625 -78.640625 67.472656 -80.601562 66.609375 -82.28125 C 65.742188 -83.96875 64.304688 -85.078125 62.296875 -85.609375 C 60.296875 -86.148438 57.640625 -85.84375 54.328125 -84.6875 Z M 54.328125 -84.6875 "/></g></g><g style="fill:#000000;fill-opacity:1;"><g transform="translate(546.019287, 240.745883)"><path style="stroke:none" d="M 53.40625 21.015625 C 45.726562 18.003906 39.445312 13.914062 34.5625 8.75 C 29.6875 3.59375 26.132812 -2.335938 23.90625 -9.046875 C 21.675781 -15.753906 20.785156 -22.90625 21.234375 -30.5 C 21.691406 -38.09375 23.453125 -45.800781 26.515625 -53.625 C 29.003906 -59.96875 32.046875 -65.992188 35.640625 -71.703125 C 39.234375 -77.421875 43.242188 -82.515625 47.671875 -86.984375 C 52.097656 -91.453125 56.816406 -95.082031 61.828125 -97.875 C 66.847656 -100.664062 72.023438 -102.367188 77.359375 -102.984375 C 82.703125 -103.597656 88.085938 -102.84375 93.515625 -100.71875 C 99.429688 -98.394531 104.519531 -95.265625 108.78125 -91.328125 C 113.039062 -87.390625 116.457031 -82.828125 119.03125 -77.640625 C 121.613281 -72.460938 123.3125 -66.882812 124.125 -60.90625 C 124.945312 -54.9375 124.910156 -48.734375 124.015625 -42.296875 C 123.128906 -35.859375 121.335938 -29.421875 118.640625 -22.984375 C 116.109375 -17.035156 113.15625 -11.359375 109.78125 -5.953125 C 106.414062 -0.546875 102.660156 4.304688 98.515625 8.609375 C 94.367188 12.910156 89.910156 16.363281 85.140625 18.96875 C 80.367188 21.582031 75.320312 23.140625 70 23.640625 C 64.675781 24.140625 59.144531 23.265625 53.40625 21.015625 Z M 78.15625 -32.03125 C 81.34375 -40.175781 83.082031 -46.585938 83.375 -51.265625 C 83.664062 -55.941406 83.054688 -58.789062 81.546875 -59.8125 C 79.878906 -60.894531 77.394531 -59.609375 74.09375 -55.953125 C 70.789062 -52.304688 67.429688 -46.117188 64.015625 -37.390625 C 61.710938 -31.523438 60.6875 -26.867188 60.9375 -23.421875 C 61.195312 -19.984375 62.15625 -17.875 63.8125 -17.09375 C 65.582031 -16.289062 67.828125 -17.085938 70.546875 -19.484375 C 73.273438 -21.878906 75.8125 -26.0625 78.15625 -32.03125 Z M 78.15625 -32.03125 "/></g></g><g style="fill:#000000;fill-opacity:1;"><g transform="translate(624.90061, 268.391341)"><path style="stroke:none" d="M 116.53125 12.28125 C 113.09375 16.988281 109.546875 21.523438 105.890625 25.890625 C 102.234375 30.265625 98.554688 34.179688 94.859375 37.640625 C 91.160156 41.109375 87.492188 43.867188 83.859375 45.921875 C 80.222656 47.972656 76.664062 49.070312 73.1875 49.21875 C 69.707031 49.375 66.394531 48.300781 63.25 46 C 60.070312 43.675781 57.851562 40.878906 56.59375 37.609375 C 55.34375 34.335938 54.800781 30.695312 54.96875 26.6875 C 55.144531 22.675781 55.816406 18.300781 56.984375 13.5625 C 58.148438 8.820312 59.582031 3.796875 61.28125 -1.515625 C 62.976562 -6.835938 64.710938 -12.398438 66.484375 -18.203125 C 64.992188 -14.617188 63.1875 -10.960938 61.0625 -7.234375 C 58.9375 -3.515625 56.613281 0.0625 54.09375 3.5 C 51.570312 6.9375 48.914062 9.972656 46.125 12.609375 C 43.34375 15.253906 40.519531 17.28125 37.65625 18.6875 C 34.789062 20.09375 31.945312 20.664062 29.125 20.40625 C 26.300781 20.144531 23.597656 18.820312 21.015625 16.4375 C 17.460938 13.28125 15.316406 9.78125 14.578125 5.9375 C 13.835938 2.101562 14.160156 -1.992188 15.546875 -6.359375 C 16.941406 -10.722656 19.070312 -15.273438 21.9375 -20.015625 C 24.800781 -24.765625 28.054688 -29.628906 31.703125 -34.609375 C 47.878906 -56.722656 59.65625 -70.925781 67.03125 -77.21875 C 70.050781 -79.6875 73.445312 -81.535156 77.21875 -82.765625 C 80.988281 -84.003906 84.769531 -84.457031 88.5625 -84.125 C 92.363281 -83.800781 95.789062 -82.519531 98.84375 -80.28125 C 101.289062 -78.488281 103.054688 -76.148438 104.140625 -73.265625 C 105.222656 -70.390625 105.742188 -67.140625 105.703125 -63.515625 C 105.671875 -59.890625 105.257812 -56.0625 104.46875 -52.03125 C 103.6875 -48 102.644531 -43.910156 101.34375 -39.765625 C 100.050781 -35.617188 98.644531 -31.566406 97.125 -27.609375 C 95.601562 -23.648438 94.117188 -20 92.671875 -16.65625 C 96.796875 -24.425781 100.484375 -31.332031 103.734375 -37.375 C 106.992188 -43.425781 109.859375 -48.132812 112.328125 -51.5 C 114.523438 -54.507812 117.050781 -56.753906 119.90625 -58.234375 C 122.757812 -59.722656 125.75 -60.328125 128.875 -60.046875 C 132.007812 -59.773438 135.097656 -58.523438 138.140625 -56.296875 C 146.640625 -50.078125 148.484375 -41.5 143.671875 -30.5625 C 142.878906 -28.8125 141.675781 -26.539062 140.0625 -23.75 C 138.445312 -20.96875 136.613281 -17.929688 134.5625 -14.640625 C 132.519531 -11.359375 130.394531 -8.046875 128.1875 -4.703125 C 125.976562 -1.359375 123.851562 1.796875 121.8125 4.765625 C 119.78125 7.742188 118.019531 10.25 116.53125 12.28125 Z M 116.53125 12.28125 "/></g></g><g style="fill:#000000;fill-opacity:1;"><g transform="translate(693.406172, 316.255893)"><path style="stroke:none" d="M 108.75 21.1875 C 102.632812 26.34375 96.128906 30.578125 89.234375 33.890625 C 82.347656 37.210938 75.316406 39.4375 68.140625 40.5625 C 60.960938 41.6875 53.875 41.535156 46.875 40.109375 C 39.882812 38.691406 33.234375 35.851562 26.921875 31.59375 C 25.023438 29.601562 23.191406 27.390625 21.421875 24.953125 C 19.660156 22.515625 18.09375 20 16.71875 17.40625 C 15.351562 14.8125 14.320312 12.253906 13.625 9.734375 C 12.925781 7.222656 12.671875 4.929688 12.859375 2.859375 C 13.054688 0.796875 13.847656 -0.925781 15.234375 -2.3125 C 18.722656 -5.632812 22.691406 -9.398438 27.140625 -13.609375 C 31.585938 -17.816406 36.316406 -22.207031 41.328125 -26.78125 C 46.335938 -31.351562 51.375 -35.910156 56.4375 -40.453125 C 61.5 -44.992188 66.367188 -49.28125 71.046875 -53.3125 C 75.734375 -57.34375 79.992188 -60.921875 83.828125 -64.046875 C 87.660156 -67.171875 90.847656 -69.582031 93.390625 -71.28125 C 95.765625 -71.925781 98.304688 -71.65625 101.015625 -70.46875 C 103.734375 -69.289062 106.484375 -67.5 109.265625 -65.09375 C 112.046875 -62.695312 114.71875 -59.941406 117.28125 -56.828125 C 119.84375 -53.710938 122.140625 -50.523438 124.171875 -47.265625 C 126.210938 -44.015625 127.851562 -41 129.09375 -38.21875 C 130.457031 -33.300781 130.914062 -28.09375 130.46875 -22.59375 C 130.03125 -17.101562 128.875 -11.65625 127 -6.25 C 125.132812 -0.84375 122.640625 4.21875 119.515625 8.9375 C 116.398438 13.664062 112.8125 17.75 108.75 21.1875 Z M 89.390625 -26.578125 C 84.359375 -20.753906 75.117188 -11.929688 61.671875 -0.109375 C 64.679688 0.710938 67.773438 0.882812 70.953125 0.40625 C 74.140625 -0.0703125 77.203125 -1.007812 80.140625 -2.40625 C 83.085938 -3.8125 85.664062 -5.507812 87.875 -7.5 C 90.09375 -9.488281 91.742188 -11.609375 92.828125 -13.859375 C 93.910156 -16.117188 94.226562 -18.351562 93.78125 -20.5625 C 93.34375 -22.78125 91.878906 -24.785156 89.390625 -26.578125 Z M 89.390625 -26.578125 "/></g></g><g clip-rule="nonzero" clip-path="url(#0f7bf5e279)"><path style=" stroke:none;fill-rule:evenodd;fill:#000000;fill-opacity:1;" d="M 145.285156 436.472656 L 142.960938 439.378906 C 141.175781 441.609375 139.289062 443.472656 137.292969 444.796875 C 131.886719 448.382812 125.832031 448.175781 119.242188 440.960938 C 113.210938 434.359375 113.328125 428.5 116.84375 423.359375 C 117.101562 422.984375 117.371094 422.617188 117.664062 422.25 L 122.191406 416.585938 C 119.257812 416.984375 116.496094 417.019531 114.039062 416.558594 C 107.933594 415.410156 103.730469 411.335938 103.347656 402.386719 C 103.136719 397.195312 104.199219 393.515625 106.203125 391.003906 L 116.019531 378.714844 C 113.554688 374.261719 113.6875 369.292969 118.082031 363.792969 L 128.730469 350.476562 C 129.082031 350.027344 129.472656 349.578125 129.882812 349.121094 C 136.65625 341.707031 142.847656 341.675781 148.367188 345.578125 C 148.84375 345.917969 149.3125 346.285156 149.785156 346.683594 L 158.089844 336.296875 C 158.132812 336.238281 158.183594 336.179688 158.230469 336.125 C 158.246094 336.105469 158.257812 336.089844 158.273438 336.066406 C 158.390625 335.933594 158.507812 335.800781 158.632812 335.671875 C 158.640625 335.664062 158.648438 335.65625 158.648438 335.648438 C 161.128906 333.027344 165.089844 331.578125 171.054688 331.828125 C 179.921875 332.203125 183.980469 336.375 185.160156 342.441406 C 185.753906 345.527344 185.5625 349.097656 184.859375 352.890625 L 186.582031 350.734375 C 186.621094 350.6875 186.648438 350.644531 186.6875 350.601562 C 186.695312 350.59375 186.707031 350.578125 186.714844 350.570312 C 188.375 348.515625 190.144531 346.785156 192.027344 345.535156 C 197.121094 342.164062 202.894531 342.140625 209.367188 348.125 C 216.304688 354.53125 216.707031 360.429688 213.476562 365.714844 C 213.097656 366.347656 212.65625 366.972656 212.164062 367.585938 L 207.429688 373.511719 C 210.84375 373.046875 214.027344 373.046875 216.773438 373.710938 C 222.78125 375.175781 226.640625 379.636719 226.238281 389.074219 C 226.054688 393.484375 224.941406 396.710938 223.121094 398.984375 C 219.90625 403.003906 216.691406 407.023438 213.476562 411.042969 C 215.890625 414.996094 216.273438 419.289062 213.417969 423.875 C 213.410156 423.890625 213.398438 423.90625 213.390625 423.925781 C 213.285156 424.089844 213.175781 424.25 213.066406 424.421875 C 213.042969 424.457031 213.015625 424.492188 212.984375 424.539062 C 212.890625 424.675781 212.789062 424.824219 212.683594 424.964844 C 212.648438 425.015625 212.613281 425.058594 212.582031 425.113281 C 212.472656 425.25 212.363281 425.398438 212.246094 425.546875 C 212.214844 425.582031 212.179688 425.628906 212.148438 425.671875 C 212.136719 425.6875 212.128906 425.699219 212.121094 425.714844 L 201.472656 439.027344 C 200.703125 439.992188 199.792969 440.960938 198.726562 441.949219 C 192.417969 447.78125 186.765625 447.90625 181.761719 444.777344 C 181.058594 444.339844 180.367188 443.832031 179.699219 443.265625 L 171.972656 452.933594 C 169.722656 455.753906 166.03125 457.519531 160.410156 457.753906 C 150.738281 458.167969 146.304688 454.074219 144.984375 447.765625 C 144.300781 444.480469 144.515625 440.601562 145.285156 436.472656 "/></g><path style=" stroke:none;fill-rule:evenodd;fill:#ffffff;fill-opacity:1;" d="M 159.925781 413.230469 C 152.777344 427.734375 142.921875 440.019531 130.828125 426.777344 C 119.777344 414.671875 131.117188 405.5 144.851562 398.859375 C 130.453125 403.894531 115.96875 405.425781 115.273438 389.023438 C 114.539062 371.515625 129.390625 372.730469 144.292969 377.632812 C 130.808594 371.023438 119.925781 361.929688 130.828125 349.988281 C 143.253906 336.375 153.3125 349.722656 160.503906 364.734375 C 154.957031 348.988281 152.578125 332.328125 171.003906 333.109375 C 187.25 333.800781 185.84375 348.15625 180.902344 362.511719 C 187.539062 348.996094 196.628906 338.101562 208.503906 349.078125 C 221.226562 360.839844 210.183594 370.433594 196.359375 377.5 C 211.121094 372.707031 225.695312 371.679688 224.960938 389.023438 C 224.28125 405.203125 210.175781 403.929688 195.976562 399.066406 C 209.976562 406.148438 221.351562 415.804688 208.511719 427.679688 C 196.921875 438.394531 187.992188 428.285156 181.402344 415.238281 C 185.921875 429.085938 186.695312 442.492188 171.003906 443.15625 C 153.238281 443.914062 154.808594 428.445312 159.925781 413.230469 "/><path style=" stroke:none;fill-rule:evenodd;fill:#000000;fill-opacity:1;" d="M 170.117188 361.320312 C 184.882812 361.320312 196.851562 373.328125 196.851562 388.132812 C 196.851562 402.945312 184.882812 414.953125 170.117188 414.953125 C 155.359375 414.953125 143.390625 402.945312 143.390625 388.132812 C 143.390625 373.328125 155.359375 361.320312 170.117188 361.320312 "/><path style=" stroke:none;fill-rule:evenodd;fill:#ffcc00;fill-opacity:1;" d="M 170.117188 362.609375 C 184.167969 362.609375 195.566406 374.035156 195.566406 388.132812 C 195.566406 402.230469 184.167969 413.664062 170.117188 413.664062 C 156.066406 413.664062 144.675781 402.230469 144.675781 388.132812 C 144.675781 374.035156 156.066406 362.609375 170.117188 362.609375 "/><path style=" stroke:none;fill-rule:evenodd;fill:#000000;fill-opacity:1;" d="M 162.558594 374.683594 C 164.597656 374.683594 166.25 377.882812 166.25 381.832031 C 166.25 385.769531 164.597656 388.972656 162.558594 388.972656 C 160.519531 388.972656 158.867188 385.769531 158.867188 381.832031 C 158.867188 377.882812 160.519531 374.683594 162.558594 374.683594 "/><path style=" stroke:none;fill-rule:evenodd;fill:#000000;fill-opacity:1;" d="M 177.089844 374.683594 C 179.121094 374.683594 180.78125 377.882812 180.78125 381.832031 C 180.78125 385.769531 179.121094 388.972656 177.089844 388.972656 C 175.046875 388.972656 173.390625 385.769531 173.390625 381.832031 C 173.390625 377.882812 175.046875 374.683594 177.089844 374.683594 "/><path style=" stroke:none;fill-rule:nonzero;fill:#000000;fill-opacity:1;" d="M 187.851562 392.511719 C 186.882812 396.480469 184.625 399.949219 181.550781 402.429688 C 178.417969 404.949219 174.4375 406.457031 170.117188 406.457031 C 165.796875 406.457031 161.824219 404.949219 158.691406 402.429688 C 155.609375 399.949219 153.351562 396.480469 152.382812 392.511719 C 152.082031 392.4375 151.800781 392.300781 151.558594 392.101562 C 151.183594 391.804688 150.921875 391.378906 150.8125 390.902344 C 150.738281 390.5625 150.949219 390.222656 151.289062 390.148438 C 151.625 390.074219 151.960938 390.296875 152.035156 390.636719 C 152.082031 390.835938 152.191406 391.003906 152.34375 391.128906 C 152.492188 391.246094 152.683594 391.320312 152.894531 391.320312 C 153.101562 391.320312 153.292969 391.246094 153.445312 391.128906 C 153.597656 391.003906 153.710938 390.835938 153.753906 390.636719 C 153.828125 390.296875 154.15625 390.074219 154.496094 390.148438 C 154.832031 390.222656 155.042969 390.5625 154.972656 390.902344 C 154.867188 391.378906 154.597656 391.804688 154.222656 392.101562 C 154.054688 392.242188 153.863281 392.359375 153.652344 392.4375 C 154.582031 396.039062 156.660156 399.183594 159.476562 401.449219 C 162.390625 403.796875 166.089844 405.203125 170.117188 405.203125 C 174.152344 405.203125 177.851562 403.796875 180.765625 401.449219 C 183.574219 399.183594 185.652344 396.039062 186.582031 392.4375 C 186.378906 392.359375 186.1875 392.242188 186.011719 392.101562 C 185.644531 391.804688 185.375 391.378906 185.261719 390.902344 C 185.191406 390.5625 185.410156 390.222656 185.746094 390.148438 C 186.085938 390.074219 186.414062 390.296875 186.488281 390.636719 C 186.53125 390.835938 186.640625 391.003906 186.796875 391.128906 C 186.945312 391.246094 187.132812 391.320312 187.347656 391.320312 C 187.550781 391.320312 187.75 391.246094 187.898438 391.128906 C 188.050781 391.003906 188.160156 390.835938 188.207031 390.636719 C 188.277344 390.296875 188.609375 390.074219 188.945312 390.148438 C 189.285156 390.222656 189.496094 390.5625 189.421875 390.902344 C 189.320312 391.378906 189.050781 391.804688 188.675781 392.101562 C 188.441406 392.300781 188.160156 392.4375 187.851562 392.511719 "/><path style=" stroke:none;fill-rule:evenodd;fill:#ffffff;fill-opacity:1;" d="M 163.445312 376.316406 C 163.945312 376.316406 164.347656 377.097656 164.347656 378.066406 C 164.347656 379.03125 163.945312 379.8125 163.445312 379.8125 C 162.949219 379.8125 162.542969 379.03125 162.542969 378.066406 C 162.542969 377.097656 162.949219 376.316406 163.445312 376.316406 "/><path style=" stroke:none;fill-rule:evenodd;fill:#ffffff;fill-opacity:1;" d="M 178.210938 376.316406 C 178.710938 376.316406 179.113281 377.097656 179.113281 378.066406 C 179.113281 379.03125 178.710938 379.8125 178.210938 379.8125 C 177.710938 379.8125 177.308594 379.03125 177.308594 378.066406 C 177.308594 377.097656 177.710938 376.316406 178.210938 376.316406 "/><g clip-rule="nonzero" clip-path="url(#fbd825d496)"><path style=" stroke:none;fill-rule:evenodd;fill:#000000;fill-opacity:1;" d="M 776.574219 431.167969 L 774.234375 434.09375 C 772.441406 436.324219 770.539062 438.199219 768.527344 439.527344 C 763.070312 443.132812 756.980469 442.917969 750.34375 435.679688 C 744.273438 429.042969 744.382812 423.164062 747.929688 418.007812 C 748.179688 417.628906 748.457031 417.253906 748.753906 416.890625 L 753.316406 411.207031 C 750.359375 411.601562 747.578125 411.644531 745.105469 411.175781 C 738.953125 410.015625 734.71875 405.9375 734.339844 396.945312 C 734.117188 391.734375 735.191406 388.035156 737.214844 385.515625 L 747.105469 373.1875 C 744.613281 368.714844 744.75 363.71875 749.175781 358.199219 L 759.898438 344.820312 C 760.253906 344.375 760.640625 343.921875 761.066406 343.46875 C 767.878906 336.023438 774.121094 336 779.671875 339.910156 C 780.15625 340.25 780.636719 340.621094 781.105469 341.023438 L 789.464844 330.589844 C 789.515625 330.53125 789.5625 330.476562 789.613281 330.417969 C 789.628906 330.394531 789.644531 330.382812 789.65625 330.359375 C 789.769531 330.226562 789.894531 330.089844 790.015625 329.957031 C 790.023438 329.957031 790.03125 329.949219 790.035156 329.941406 C 792.527344 327.3125 796.523438 325.847656 802.527344 326.109375 C 811.453125 326.488281 815.546875 330.671875 816.734375 336.765625 C 817.335938 339.863281 817.136719 343.445312 816.429688 347.25 L 818.167969 345.082031 C 818.199219 345.035156 818.234375 345 818.273438 344.953125 C 818.28125 344.941406 818.289062 344.933594 818.292969 344.917969 C 819.972656 342.859375 821.757812 341.128906 823.652344 339.871094 C 828.777344 336.484375 834.597656 336.460938 841.121094 342.472656 C 848.097656 348.902344 848.507812 354.816406 845.253906 360.128906 C 844.867188 360.761719 844.425781 361.386719 843.9375 362.003906 L 839.160156 367.953125 C 842.601562 367.496094 845.808594 367.488281 848.574219 368.15625 C 854.621094 369.628906 858.507812 374.101562 858.105469 383.574219 C 857.921875 388.003906 856.792969 391.246094 854.964844 393.535156 C 851.722656 397.570312 848.492188 401.605469 845.253906 405.640625 C 847.683594 409.609375 848.070312 413.910156 845.199219 418.519531 C 845.183594 418.535156 845.171875 418.554688 845.164062 418.570312 C 845.058594 418.734375 844.957031 418.898438 844.84375 419.0625 C 844.8125 419.105469 844.785156 419.144531 844.761719 419.179688 C 844.65625 419.328125 844.554688 419.476562 844.449219 419.617188 C 844.421875 419.664062 844.382812 419.714844 844.347656 419.761719 C 844.242188 419.910156 844.128906 420.050781 844.011719 420.199219 C 843.980469 420.242188 843.945312 420.289062 843.914062 420.324219 C 843.898438 420.339844 843.894531 420.355469 843.886719 420.371094 L 833.164062 433.738281 C 832.390625 434.695312 831.46875 435.679688 830.398438 436.667969 C 824.046875 442.523438 818.347656 442.648438 813.308594 439.503906 C 812.601562 439.066406 811.910156 438.554688 811.234375 437.988281 L 803.449219 447.703125 C 801.183594 450.527344 797.46875 452.300781 791.804688 452.539062 C 782.0625 452.949219 777.605469 448.839844 776.277344 442.507812 C 775.578125 439.207031 775.792969 435.3125 776.574219 431.167969 "/></g><path style=" stroke:none;fill-rule:evenodd;fill:#ffffff;fill-opacity:1;" d="M 791.316406 407.832031 C 784.113281 422.390625 774.195312 434.734375 762.015625 421.433594 C 750.878906 409.28125 762.300781 400.066406 776.132812 393.40625 C 761.636719 398.453125 747.042969 400 746.347656 383.53125 C 745.601562 365.957031 760.566406 367.167969 775.570312 372.09375 C 761.996094 365.449219 751.027344 356.332031 762.015625 344.335938 C 774.523438 330.671875 784.65625 344.070312 791.902344 359.140625 C 786.3125 343.335938 783.921875 326.605469 802.476562 327.394531 C 818.84375 328.085938 817.425781 342.496094 812.445312 356.910156 C 819.128906 343.34375 828.28125 332.402344 840.246094 343.421875 C 853.0625 355.230469 841.9375 364.863281 828.015625 371.960938 C 842.875 367.152344 857.558594 366.113281 856.820312 383.53125 C 856.128906 399.777344 841.921875 398.5 827.628906 393.609375 C 841.730469 400.71875 853.179688 410.425781 840.25 422.347656 C 828.585938 433.09375 819.582031 422.949219 812.945312 409.855469 C 817.5 423.75 818.273438 437.210938 802.476562 437.878906 C 784.582031 438.636719 786.164062 423.113281 791.316406 407.832031 "/><path style=" stroke:none;fill-rule:evenodd;fill:#000000;fill-opacity:1;" d="M 801.582031 355.714844 C 816.453125 355.714844 828.503906 367.769531 828.503906 382.640625 C 828.503906 397.511719 816.453125 409.5625 801.582031 409.5625 C 786.714844 409.5625 774.664062 397.511719 774.664062 382.640625 C 774.664062 367.769531 786.714844 355.714844 801.582031 355.714844 "/><path style=" stroke:none;fill-rule:evenodd;fill:#ffcc00;fill-opacity:1;" d="M 801.582031 357.007812 C 815.738281 357.007812 827.210938 368.484375 827.210938 382.640625 C 827.210938 396.789062 815.738281 408.269531 801.582031 408.269531 C 787.429688 408.269531 775.957031 396.789062 775.957031 382.640625 C 775.957031 368.484375 787.429688 357.007812 801.582031 357.007812 "/><path style=" stroke:none;fill-rule:nonzero;fill:#000000;fill-opacity:1;" d="M 819.445312 387.03125 C 818.472656 391.023438 816.191406 394.5 813.09375 396.988281 C 809.941406 399.515625 805.9375 401.03125 801.582031 401.03125 C 797.230469 401.03125 793.222656 399.515625 790.074219 396.988281 C 786.976562 394.5 784.703125 391.023438 783.722656 387.03125 C 783.417969 386.957031 783.132812 386.816406 782.890625 386.621094 C 782.515625 386.316406 782.242188 385.894531 782.136719 385.410156 C 782.0625 385.070312 782.28125 384.734375 782.621094 384.660156 C 782.964844 384.585938 783.296875 384.800781 783.371094 385.144531 C 783.417969 385.34375 783.527344 385.515625 783.675781 385.640625 C 783.832031 385.761719 784.027344 385.835938 784.234375 385.835938 C 784.449219 385.835938 784.636719 385.761719 784.792969 385.640625 C 784.945312 385.515625 785.058594 385.34375 785.09375 385.144531 C 785.171875 384.800781 785.503906 384.585938 785.847656 384.660156 C 786.1875 384.734375 786.402344 385.070312 786.328125 385.410156 C 786.226562 385.894531 785.949219 386.316406 785.578125 386.621094 C 785.398438 386.765625 785.207031 386.875 785 386.957031 C 785.933594 390.578125 788.03125 393.734375 790.863281 396.007812 C 793.796875 398.363281 797.527344 399.777344 801.582031 399.777344 C 805.648438 399.777344 809.371094 398.363281 812.304688 396.007812 C 815.136719 393.734375 817.230469 390.578125 818.167969 386.957031 C 817.960938 386.875 817.765625 386.765625 817.597656 386.621094 C 817.21875 386.316406 816.949219 385.894531 816.839844 385.410156 C 816.765625 385.070312 816.980469 384.734375 817.320312 384.660156 C 817.664062 384.585938 817.996094 384.800781 818.070312 385.144531 C 818.117188 385.34375 818.226562 385.515625 818.382812 385.640625 C 818.53125 385.761719 818.726562 385.835938 818.933594 385.835938 C 819.148438 385.835938 819.34375 385.761719 819.492188 385.640625 C 819.648438 385.515625 819.757812 385.34375 819.804688 385.144531 C 819.871094 384.800781 820.203125 384.585938 820.546875 384.660156 C 820.886719 384.734375 821.101562 385.070312 821.027344 385.410156 C 820.925781 385.894531 820.648438 386.316406 820.277344 386.621094 C 820.039062 386.816406 819.757812 386.957031 819.445312 387.03125 "/><path style=" stroke:none;fill-rule:nonzero;fill:#000000;fill-opacity:1;" d="M 799.808594 374.449219 C 799.867188 373.972656 799.53125 373.527344 799.050781 373.46875 C 798.574219 373.402344 798.128906 373.738281 798.0625 374.21875 C 797.90625 375.410156 797.3125 376.464844 796.441406 377.222656 C 795.59375 377.972656 794.480469 378.425781 793.261719 378.425781 C 792.050781 378.425781 790.9375 377.972656 790.082031 377.222656 C 789.21875 376.464844 788.625 375.410156 788.460938 374.21875 C 788.402344 373.742188 787.964844 373.402344 787.480469 373.46875 C 786.996094 373.527344 786.664062 373.96875 786.722656 374.449219 C 786.9375 376.070312 787.753906 377.511719 788.929688 378.542969 C 790.097656 379.5625 791.613281 380.179688 793.261719 380.179688 C 794.917969 380.179688 796.433594 379.5625 797.601562 378.542969 C 798.773438 377.511719 799.585938 376.070312 799.808594 374.449219 Z M 816.445312 374.449219 C 816.511719 373.972656 816.167969 373.527344 815.695312 373.46875 C 815.210938 373.402344 814.773438 373.738281 814.707031 374.21875 C 814.550781 375.410156 813.949219 376.464844 813.085938 377.222656 C 812.230469 377.972656 811.117188 378.425781 809.90625 378.425781 C 808.6875 378.425781 807.574219 377.972656 806.726562 377.222656 C 805.855469 376.464844 805.261719 375.410156 805.105469 374.21875 C 805.039062 373.742188 804.601562 373.402344 804.117188 373.46875 C 803.640625 373.527344 803.300781 373.96875 803.367188 374.449219 C 803.582031 376.070312 804.390625 377.511719 805.566406 378.542969 C 806.734375 379.5625 808.257812 380.179688 809.90625 380.179688 C 811.554688 380.179688 813.070312 379.5625 814.238281 378.542969 C 815.410156 377.511719 816.230469 376.070312 816.445312 374.449219 "/></g></svg>